<svg width="100" height="32" viewBox="0 0 100 32" fill="none" xmlns="http://www.w3.org/2000/svg">
<path d="M68 0H75.5L84 17.5L92.5 0H100L84 32L68 0Z" fill="black"/>
<path fill-rule="evenodd" clip-rule="evenodd" d="M58 0V16C58 18.1217 57.1571 20.1566 55.6569 21.6569C54.1566 23.1571 52.1217 24 50 24C47.8783 24 45.8434 23.1571 44.3431 21.6569C42.8429 20.1566 42 18.1217 42 16H34C34 20.2435 35.6857 24.3131 38.6863 27.3137C41.6869 30.3143 45.7565 32 50 32C54.2435 32 58.3131 30.3143 61.3137 27.3137C64.3143 24.3131 66 20.2435 66 16V0H58Z" fill="black"/>
<path d="M0 7.62939e-06H8V12H16H24V7.62939e-06H32V32H24V20H16H8V32H0V7.62939e-06Z" fill="black"/>
</svg>
